<?xml version="1.0" ?><svg id="cow" style="enable-background:new 0 0 300 300;" version="1.1" viewBox="0 0 300 300" xml:space="preserve" xmlns="http://www.w3.org/2000/svg" xmlns:xlink="http://www.w3.org/1999/xlink"><g><path d="   M81.825,108h-17.95c-11.051,0-22.583-8.581-25.763-19.18L31.867,68h55.999" style="fill-rule:evenodd;clip-rule:evenodd;fill:none;stroke:#000000;stroke-width:7.7333;stroke-linecap:round;stroke-linejoin:round;stroke-miterlimit:10;"/><path d="   M222.162,108h21.696c11.051,0,22.583-8.581,25.763-19.18L275.867,68h-58.705" style="fill-rule:evenodd;clip-rule:evenodd;fill:none;stroke:#000000;stroke-width:7.7333;stroke-linecap:round;stroke-linejoin:round;stroke-miterlimit:10;"/><path d="   M91.867,46.028c0-5.539,4.439-10.028,10-10.028c5.523,0,10,4.487,10,10.028V68h-20V46.028z" style="fill-rule:evenodd;clip-rule:evenodd;fill:none;stroke:#000000;stroke-width:8;stroke-linecap:round;stroke-linejoin:round;stroke-miterlimit:10;"/><path d="   M195.867,46.028c0-5.539,4.439-10.028,10-10.028c5.523,0,10,4.487,10,10.028V68h-20V46.028z" style="fill-rule:evenodd;clip-rule:evenodd;fill:none;stroke:#000000;stroke-width:8;stroke-linecap:round;stroke-linejoin:round;stroke-miterlimit:10;"/><polyline points="   76.493,166.573 87.867,68 215.867,68 227.246,166.623  " style="fill-rule:evenodd;clip-rule:evenodd;fill:none;stroke:#000000;stroke-width:7.7333;stroke-linecap:round;stroke-linejoin:round;stroke-miterlimit:10;"/><path d="   M67.867,187.974c0-15.45,12.559-27.974,28.025-27.974h111.95c15.478,0,28.025,12.522,28.025,27.974v32.043   c0,28.71-23.271,51.984-52.006,51.984h-63.989c-28.722,0-52.006-23.274-52.006-51.984V187.974z" style="fill-rule:evenodd;clip-rule:evenodd;fill:none;stroke:#000000;stroke-width:8;stroke-linecap:round;stroke-linejoin:round;stroke-miterlimit:10;"/><circle cx="187.867" cy="216" r="16" style="fill-rule:evenodd;clip-rule:evenodd;fill:none;stroke:#000000;stroke-width:8;stroke-linecap:round;stroke-linejoin:round;stroke-miterlimit:10;"/><circle cx="115.867" cy="216" r="16" style="fill-rule:evenodd;clip-rule:evenodd;fill:none;stroke:#000000;stroke-width:8;stroke-linecap:round;stroke-linejoin:round;stroke-miterlimit:10;"/><circle cx="127.867" cy="132" r="8" style="fill-rule:evenodd;clip-rule:evenodd;fill:none;stroke:#000000;stroke-width:8;stroke-linecap:round;stroke-linejoin:round;stroke-miterlimit:10;"/><circle cx="175.867" cy="132" r="8" style="fill-rule:evenodd;clip-rule:evenodd;fill:none;stroke:#000000;stroke-width:8;stroke-linecap:round;stroke-linejoin:round;stroke-miterlimit:10;"/></g><g/><g/><g/><g/><g/><g/><g/><g/><g/><g/><g/><g/><g/><g/><g/></svg>